<svg width="48" height="48" viewBox="0 0 48 48" fill="none" xmlns="http://www.w3.org/2000/svg">
<path d="M8.4 48L39.6 48C44.2392 48 48 44.2392 48 39.6L48 8.4C48 3.76081 44.2392 0 39.6 0L8.4 0C3.76081 0 0 3.76081 0 8.4L0 39.6C0 44.2392 3.76081 48 8.4 48Z" fill="url(#paint0_radial)"/>
<path d="M33 42H15C12.6131 42 10.3239 41.0518 8.63604 39.364C6.94821 37.6761 6 35.3869 6 33V15C6 12.6131 6.94821 10.3239 8.63604 8.63604C10.3239 6.94821 12.6131 6 15 6H33C35.3869 6 37.6761 6.94821 39.364 8.63604C41.0518 10.3239 42 12.6131 42 15V33C42 35.3869 41.0518 37.6761 39.364 39.364C37.6761 41.0518 35.3869 42 33 42V42ZM15 9.6C13.5684 9.60198 12.1961 10.1715 11.1838 11.1838C10.1715 12.1961 9.60198 13.5684 9.6 15V33C9.60198 34.4316 10.1715 35.8039 11.1838 36.8162C12.1961 37.8285 13.5684 38.398 15 38.4H33C34.4316 38.398 35.8039 37.8285 36.8162 36.8162C37.8285 35.8039 38.398 34.4316 38.4 33V15C38.398 13.5684 37.8285 12.1961 36.8162 11.1838C35.8039 10.1715 34.4316 9.60198 33 9.6H15Z" fill="white"/>
<path d="M24.0001 34.2001C21.9827 34.2001 20.0106 33.6018 18.3332 32.481C16.6559 31.3603 15.3485 29.7672 14.5765 27.9034C13.8045 26.0396 13.6025 23.9887 13.996 22.0101C14.3896 20.0315 15.3611 18.2141 16.7876 16.7876C18.2141 15.3611 20.0315 14.3896 22.0101 13.996C23.9887 13.6025 26.0396 13.8045 27.9034 14.5765C29.7672 15.3485 31.3603 16.6559 32.481 18.3332C33.6018 20.0106 34.2001 21.9827 34.2001 24.0001C34.1981 26.7047 33.1228 29.2979 31.2103 31.2103C29.2979 33.1228 26.7047 34.1981 24.0001 34.2001V34.2001ZM24.0001 17.4001C22.6947 17.4001 21.4187 17.7871 20.3333 18.5124C19.2479 19.2376 18.402 20.2683 17.9024 21.4743C17.4029 22.6803 17.2722 24.0074 17.5269 25.2876C17.7815 26.5679 18.4101 27.7439 19.3331 28.667C20.2562 29.59 21.4322 30.2186 22.7125 30.4732C23.9927 30.7279 25.3198 30.5972 26.5258 30.0977C27.7318 29.5981 28.7625 28.7522 29.4878 27.6668C30.213 26.5815 30.6001 25.3054 30.6001 24.0001C30.5981 22.2502 29.9021 20.5727 28.6648 19.3353C27.4275 18.098 25.7499 17.402 24.0001 17.4001V17.4001Z" fill="white"/>
<path d="M34.2 16.2001C35.1941 16.2001 36 15.3942 36 14.4001C36 13.406 35.1941 12.6001 34.2 12.6001C33.2059 12.6001 32.4 13.406 32.4 14.4001C32.4 15.3942 33.2059 16.2001 34.2 16.2001Z" fill="white"/>
<defs>
<radialGradient id="paint0_radial" cx="0" cy="0" r="1" gradientUnits="userSpaceOnUse" gradientTransform="translate(-0.965622 47.025) rotate(180) scale(110.846)">
<stop stop-color="#F9ED32"/>
<stop offset="0.36" stop-color="#EE2A7B"/>
<stop offset="0.44" stop-color="#D22A8A"/>
<stop offset="0.6" stop-color="#8B2AB2"/>
<stop offset="0.83" stop-color="#1B2AF0"/>
<stop offset="0.88" stop-color="#002AFF"/>
</radialGradient>
</defs>
</svg>
