<svg width="48" height="48" viewBox="0 0 48 48" fill="none" xmlns="http://www.w3.org/2000/svg">
<path d="M42.8491 0H5.15086C2.30612 0 0 2.30612 0 5.15086V42.8491C0 45.6939 2.30612 48 5.15086 48H42.8491C45.6939 48 48 45.6939 48 42.8491V5.15086C48 2.30612 45.6939 0 42.8491 0Z" fill="#2AB200"/>
<path fill-rule="evenodd" clip-rule="evenodd" d="M24.2613 7.46509C33.2193 7.46509 40.4604 14.7061 40.4604 23.5895C40.4604 32.5475 33.2193 39.7886 24.2613 39.7886C21.4246 39.7886 18.6625 39.0421 16.3484 37.773L7.53967 40.5351L10.3017 31.8757C8.88337 29.4869 8.06222 26.6502 8.06222 23.5895C8.06222 14.7061 15.3033 7.46509 24.2613 7.46509ZM20.5288 22.3951C20.5288 22.3951 21.7232 24.336 23.6641 25.9037C25.605 27.3967 26.6501 27.6953 26.6501 27.6953C26.6501 27.6953 28.367 25.5304 28.591 25.5304C28.8149 25.4558 30.3079 26.1276 30.9798 26.5009C31.577 26.7995 32.4728 27.322 32.4728 27.546C32.4728 27.6953 32.3981 29.039 31.9502 29.5615C31.5023 30.0094 30.2333 31.2038 29.0389 31.0545C23.2162 30.6066 17.8414 25.3065 16.8709 21.4247C16.7216 20.7528 16.7963 18.14 17.3188 17.4682C17.916 16.7963 18.2893 16.3484 19.0358 16.2738C19.7823 16.1991 20.2302 16.2738 20.4541 16.7963C20.7527 17.3189 21.8725 19.857 21.9471 20.1556C22.0218 20.4542 20.4541 21.9472 20.5288 22.3951ZM18.2146 35.6828C20.0062 36.5786 22.0964 37.1012 24.2613 37.1012C31.7263 37.1012 37.6983 31.0545 37.6983 23.5895C37.6983 16.1991 31.7263 10.1525 24.2613 10.1525C16.7963 10.1525 10.7496 16.1991 10.7496 23.5895C10.7496 26.5009 11.7201 29.1883 13.2131 31.3531L11.7201 36.504L16.8709 34.9363L18.2146 35.6828Z" fill="white"/>
<path fill-rule="evenodd" clip-rule="evenodd" d="M40.4604 23.5894C40.4604 36.056 27.0233 43.7449 16.3484 37.7729L7.53967 40.535L15.0047 48H42.7745L48 42.7745V24.9331L37.773 14.7061C39.4153 17.2442 40.4604 20.3048 40.4604 23.5894Z" fill="#229000"/>
<path fill-rule="evenodd" clip-rule="evenodd" d="M18.2147 35.6827C27.0234 40.087 37.6983 33.7418 37.6983 23.5894C37.6983 16.199 31.7263 10.1523 24.2613 10.1523C13.2878 10.1523 7.01715 22.5443 13.2131 31.353L11.7201 36.5038L16.871 34.9362L18.2147 35.6827ZM29.0389 31.0544C23.2162 30.6065 17.8414 25.3063 16.871 21.4245C16.4977 19.8569 16.9456 16.4976 19.0358 16.2736C19.7823 16.199 20.2302 16.2736 20.4542 16.7962C20.7528 17.3188 21.8725 19.8569 21.9472 20.1555C22.0218 20.4541 20.4542 21.9471 20.5288 22.395C21.35 23.8133 24.4853 27.1726 26.6501 27.6951C28.7403 25.0824 28.2178 25.0824 30.9798 26.5007C31.577 26.7993 32.4728 27.3219 32.4728 27.5458C32.4728 29.7853 30.4573 31.2037 29.0389 31.0544Z" fill="#229000"/>
</svg>
