<svg width="125" height="24" viewBox="0 0 125 24" fill="none" xmlns="http://www.w3.org/2000/svg">
<g clip-path="url(#clip0)">
<path d="M17.9987 4.55156C16.0188 2.58281 13.3821 1.5 10.58 1.5C4.79618 1.5 0.0897807 6.16875 0.0897807 11.9063C0.0897807 13.7391 0.571762 15.5297 1.48847 17.1094L0 22.5L5.56168 21.0516C7.09268 21.8813 8.81741 22.3172 10.5752 22.3172H10.58C16.359 22.3172 21.1694 17.6484 21.1694 11.9109C21.1694 9.13125 19.9786 6.52031 17.9987 4.55156V4.55156ZM10.58 20.5641C9.01115 20.5641 7.47543 20.1469 6.13817 19.3594L5.82157 19.1719L2.52331 20.0297L3.40222 16.8375L3.1943 16.5094C2.32012 15.1313 1.86177 13.5422 1.86177 11.9063C1.86177 7.13906 5.77432 3.25781 10.5847 3.25781C12.9143 3.25781 15.1021 4.15781 16.7465 5.79375C18.3909 7.42969 19.4021 9.6 19.3974 11.9109C19.3974 16.6828 15.3856 20.5641 10.58 20.5641V20.5641ZM15.362 14.0859C15.1021 13.9547 13.8121 13.3266 13.5711 13.2422C13.3301 13.1531 13.1552 13.1109 12.9804 13.3734C12.8056 13.6359 12.3047 14.2172 12.1488 14.3953C11.9975 14.5688 11.8416 14.5922 11.5817 14.4609C10.0413 13.6969 9.03005 13.0969 8.01411 11.3672C7.74477 10.9078 8.28345 10.9406 8.78434 9.94688C8.86939 9.77344 8.82686 9.62344 8.76071 9.49219C8.69456 9.36094 8.17005 8.08125 7.95268 7.56094C7.74005 7.05469 7.52268 7.125 7.36202 7.11563C7.21081 7.10625 7.03598 7.10625 6.86114 7.10625C6.6863 7.10625 6.40278 7.17188 6.16179 7.42969C5.9208 7.69219 5.24509 8.32031 5.24509 9.6C5.24509 10.8797 6.18542 12.1172 6.313 12.2906C6.44531 12.4641 8.1606 15.0891 10.7926 16.2188C12.4559 16.9313 13.108 16.9922 13.9396 16.8703C14.4452 16.7953 15.4895 16.2422 15.7069 15.6328C15.9243 15.0234 15.9243 14.5031 15.8581 14.3953C15.7967 14.2781 15.6218 14.2125 15.362 14.0859Z" fill="white"/>
</g>
<path d="M32.6017 6.10893C34.1203 6.10893 35.3103 6.4716 36.1717 7.19693C37.033 7.92226 37.4637 8.9196 37.4637 10.1889C37.4637 11.4583 37.033 12.4556 36.1717 13.1809C35.3103 13.8949 34.1203 14.2519 32.6017 14.2519H29.4057V18.0089H28.1477V6.10893H32.6017ZM32.5677 13.1469C33.7463 13.1469 34.6473 12.8919 35.2707 12.3819C35.894 11.8606 36.2057 11.1296 36.2057 10.1889C36.2057 9.2256 35.894 8.48893 35.2707 7.97893C34.6473 7.4576 33.7463 7.19693 32.5677 7.19693H29.4057V13.1469H32.5677ZM47.665 13.9119H40.185C40.253 14.8413 40.61 15.5949 41.256 16.1729C41.902 16.7396 42.718 17.0229 43.704 17.0229C44.2593 17.0229 44.7693 16.9266 45.234 16.7339C45.6987 16.5299 46.101 16.2353 46.441 15.8499L47.121 16.6319C46.7243 17.1079 46.2257 17.4706 45.625 17.7199C45.0357 17.9693 44.384 18.0939 43.67 18.0939C42.752 18.0939 41.936 17.9013 41.222 17.5159C40.5193 17.1193 39.9697 16.5753 39.573 15.8839C39.1763 15.1926 38.978 14.4106 38.978 13.5379C38.978 12.6653 39.165 11.8833 39.539 11.1919C39.9243 10.5006 40.4457 9.96226 41.103 9.57693C41.7717 9.1916 42.5197 8.99893 43.347 8.99893C44.1743 8.99893 44.9167 9.1916 45.574 9.57693C46.2313 9.96226 46.747 10.5006 47.121 11.1919C47.495 11.8719 47.682 12.6539 47.682 13.5379L47.665 13.9119ZM43.347 10.0359C42.4857 10.0359 41.7603 10.3136 41.171 10.8689C40.593 11.4129 40.2643 12.1269 40.185 13.0109H46.526C46.4467 12.1269 46.1123 11.4129 45.523 10.8689C44.945 10.3136 44.2197 10.0359 43.347 10.0359ZM53.8448 18.0939C52.9608 18.0939 52.1674 17.9013 51.4648 17.5159C50.7734 17.1306 50.2294 16.5923 49.8328 15.9009C49.4361 15.1983 49.2378 14.4106 49.2378 13.5379C49.2378 12.6653 49.4361 11.8833 49.8328 11.1919C50.2294 10.5006 50.7734 9.96226 51.4648 9.57693C52.1674 9.1916 52.9608 8.99893 53.8448 8.99893C54.6154 8.99893 55.3011 9.15193 55.9018 9.45793C56.5138 9.7526 56.9954 10.1889 57.3468 10.7669L56.4458 11.3789C56.1511 10.9369 55.7771 10.6083 55.3238 10.3929C54.8704 10.1663 54.3774 10.0529 53.8448 10.0529C53.1988 10.0529 52.6151 10.2003 52.0938 10.4949C51.5838 10.7783 51.1814 11.1863 50.8868 11.7189C50.6034 12.2516 50.4618 12.8579 50.4618 13.5379C50.4618 14.2293 50.6034 14.8413 50.8868 15.3739C51.1814 15.8953 51.5838 16.3033 52.0938 16.5979C52.6151 16.8813 53.1988 17.0229 53.8448 17.0229C54.3774 17.0229 54.8704 16.9153 55.3238 16.6999C55.7771 16.4846 56.1511 16.1559 56.4458 15.7139L57.3468 16.3259C56.9954 16.9039 56.5138 17.3459 55.9018 17.6519C55.2898 17.9466 54.6041 18.0939 53.8448 18.0939ZM53.1308 21.7489C52.5754 21.7489 52.0994 21.6186 51.7028 21.3579L51.9918 20.7119C52.3204 20.9273 52.6944 21.0349 53.1138 21.0349C53.4538 21.0349 53.7144 20.9669 53.8958 20.8309C54.0771 20.6949 54.1678 20.4966 54.1678 20.2359C54.1678 19.9979 54.0771 19.8053 53.8958 19.6579C53.7258 19.5219 53.4651 19.4539 53.1138 19.4539H52.7228L53.1308 17.9069H53.8618L53.6068 18.8929C54.0714 18.9383 54.4284 19.0799 54.6778 19.3179C54.9271 19.5673 55.0518 19.8846 55.0518 20.2699C55.0518 20.7233 54.8761 21.0803 54.5248 21.3409C54.1734 21.6129 53.7088 21.7489 53.1308 21.7489ZM62.8459 8.99893C64.0132 8.99893 64.9085 9.2936 65.5319 9.88293C66.1552 10.4609 66.4669 11.3223 66.4669 12.4669V18.0089H65.3109V16.6149C65.0389 17.0796 64.6365 17.4423 64.1039 17.7029C63.5825 17.9636 62.9592 18.0939 62.2339 18.0939C61.2365 18.0939 60.4432 17.8559 59.8539 17.3799C59.2645 16.9039 58.9699 16.2749 58.9699 15.4929C58.9699 14.7336 59.2419 14.1216 59.7859 13.6569C60.3412 13.1923 61.2195 12.9599 62.4209 12.9599H65.2599V12.4159C65.2599 11.6453 65.0445 11.0616 64.6139 10.6649C64.1832 10.2569 63.5542 10.0529 62.7269 10.0529C62.1602 10.0529 61.6162 10.1493 61.0949 10.3419C60.5735 10.5233 60.1259 10.7783 59.7519 11.1069L59.2079 10.2059C59.6612 9.8206 60.2052 9.52593 60.8399 9.32193C61.4745 9.1066 62.1432 8.99893 62.8459 8.99893ZM62.4209 17.1419C63.1009 17.1419 63.6845 16.9889 64.1719 16.6829C64.6592 16.3656 65.0219 15.9123 65.2599 15.3229V13.8609H62.4549C60.9249 13.8609 60.1599 14.3936 60.1599 15.4589C60.1599 15.9803 60.3582 16.3939 60.7549 16.6999C61.1515 16.9946 61.7069 17.1419 62.4209 17.1419ZM81.9124 14.8299H75.2824L73.8544 18.0089H72.5454L77.9854 6.10893H79.2264L84.6664 18.0089H83.3404L81.9124 14.8299ZM81.4534 13.8099L78.5974 7.41793L75.7414 13.8099H81.4534ZM94.576 9.06693V16.9209C94.576 18.4396 94.202 19.5616 93.454 20.2869C92.7173 21.0236 91.601 21.3919 90.105 21.3919C89.2776 21.3919 88.49 21.2673 87.742 21.0179C87.0053 20.7799 86.4046 20.4456 85.94 20.0149L86.552 19.0969C86.9826 19.4823 87.504 19.7826 88.116 19.9979C88.7393 20.2133 89.391 20.3209 90.071 20.3209C91.2043 20.3209 92.0373 20.0546 92.57 19.5219C93.1026 19.0006 93.369 18.1846 93.369 17.0739V15.9349C92.995 16.5016 92.502 16.9323 91.89 17.2269C91.2893 17.5216 90.6206 17.6689 89.884 17.6689C89.0453 17.6689 88.2803 17.4876 87.589 17.1249C86.909 16.7509 86.3706 16.2353 85.974 15.5779C85.5886 14.9093 85.396 14.1556 85.396 13.3169C85.396 12.4783 85.5886 11.7303 85.974 11.0729C86.3706 10.4156 86.909 9.9056 87.589 9.54293C88.269 9.18026 89.034 8.99893 89.884 8.99893C90.6433 8.99893 91.329 9.15193 91.941 9.45793C92.553 9.76393 93.046 10.2059 93.42 10.7839V9.06693H94.576ZM90.003 16.5979C90.649 16.5979 91.2326 16.4619 91.754 16.1899C92.2753 15.9066 92.6776 15.5156 92.961 15.0169C93.2556 14.5183 93.403 13.9516 93.403 13.3169C93.403 12.6823 93.2556 12.1213 92.961 11.6339C92.6776 11.1353 92.2753 10.7499 91.754 10.4779C91.244 10.1946 90.6603 10.0529 90.003 10.0529C89.357 10.0529 88.7733 10.1889 88.252 10.4609C87.742 10.7329 87.3396 11.1183 87.045 11.6169C86.7616 12.1156 86.62 12.6823 86.62 13.3169C86.62 13.9516 86.7616 14.5183 87.045 15.0169C87.3396 15.5156 87.742 15.9066 88.252 16.1899C88.7733 16.4619 89.357 16.5979 90.003 16.5979ZM101.606 18.0939C100.745 18.0939 99.9686 17.9013 99.2773 17.5159C98.5859 17.1193 98.0419 16.5753 97.6453 15.8839C97.2486 15.1926 97.0503 14.4106 97.0503 13.5379C97.0503 12.6653 97.2486 11.8833 97.6453 11.1919C98.0419 10.5006 98.5859 9.96226 99.2773 9.57693C99.9686 9.1916 100.745 8.99893 101.606 8.99893C102.468 8.99893 103.244 9.1916 103.935 9.57693C104.627 9.96226 105.165 10.5006 105.55 11.1919C105.947 11.8833 106.145 12.6653 106.145 13.5379C106.145 14.4106 105.947 15.1926 105.55 15.8839C105.165 16.5753 104.627 17.1193 103.935 17.5159C103.244 17.9013 102.468 18.0939 101.606 18.0939ZM101.606 17.0229C102.241 17.0229 102.808 16.8813 103.306 16.5979C103.816 16.3033 104.213 15.8896 104.496 15.3569C104.78 14.8243 104.921 14.2179 104.921 13.5379C104.921 12.8579 104.78 12.2516 104.496 11.7189C104.213 11.1863 103.816 10.7783 103.306 10.4949C102.808 10.2003 102.241 10.0529 101.606 10.0529C100.972 10.0529 100.399 10.2003 99.8893 10.4949C99.3906 10.7783 98.9939 11.1863 98.6993 11.7189C98.4159 12.2516 98.2743 12.8579 98.2743 13.5379C98.2743 14.2179 98.4159 14.8243 98.6993 15.3569C98.9939 15.8896 99.3906 16.3033 99.8893 16.5979C100.399 16.8813 100.972 17.0229 101.606 17.0229ZM109.765 10.8179C110.049 10.2173 110.468 9.76393 111.023 9.45793C111.59 9.15193 112.287 8.99893 113.114 8.99893V10.1719L112.825 10.1549C111.885 10.1549 111.148 10.4439 110.615 11.0219C110.083 11.5999 109.816 12.4103 109.816 13.4529V18.0089H108.609V9.06693H109.765V10.8179ZM118.411 8.99893C119.579 8.99893 120.474 9.2936 121.097 9.88293C121.721 10.4609 122.032 11.3223 122.032 12.4669V18.0089H120.876V16.6149C120.604 17.0796 120.202 17.4423 119.669 17.7029C119.148 17.9636 118.525 18.0939 117.799 18.0939C116.802 18.0939 116.009 17.8559 115.419 17.3799C114.83 16.9039 114.535 16.2749 114.535 15.4929C114.535 14.7336 114.807 14.1216 115.351 13.6569C115.907 13.1923 116.785 12.9599 117.986 12.9599H120.825V12.4159C120.825 11.6453 120.61 11.0616 120.179 10.6649C119.749 10.2569 119.12 10.0529 118.292 10.0529C117.726 10.0529 117.182 10.1493 116.66 10.3419C116.139 10.5233 115.691 10.7783 115.317 11.1069L114.773 10.2059C115.227 9.8206 115.771 9.52593 116.405 9.32193C117.04 9.1066 117.709 8.99893 118.411 8.99893ZM117.986 17.1419C118.666 17.1419 119.25 16.9889 119.737 16.6829C120.225 16.3656 120.587 15.9123 120.825 15.3229V13.8609H118.02C116.49 13.8609 115.725 14.3936 115.725 15.4589C115.725 15.9803 115.924 16.3939 116.32 16.6999C116.717 16.9946 117.272 17.1419 117.986 17.1419Z" fill="white"/>
<defs>
<clipPath id="clip0">
<rect width="21.1694" height="24" fill="white"/>
</clipPath>
</defs>
</svg>
